<svg width="24" height="24" viewBox="0 0 24 24" fill="none" xmlns="http://www.w3.org/2000/svg">
<path d="M3 10.417C3 7.219 3 5.62 3.378 5.082C3.755 4.545 5.258 4.03 8.265 3.001L8.838 2.805C10.405 2.268 11.188 2 12 2C12.811 2 13.595 2.268 15.162 2.805L15.735 3.001C18.742 4.03 20.245 4.545 20.622 5.082C21 5.62 21 7.22 21 10.417V14.5074C21 15.303 20.6888 16.0719 20.091 16.597C19.1096 17.4591 17.9189 18.3739 16.5 19.5C15.6196 20.1987 14.0741 21.393 12.9001 22.0686C12.3375 22.3924 11.6631 22.396 11.0832 22.1042C9.94556 21.5316 8.43984 20.5435 7.125 19.5C5.72224 18.3867 4.74915 17.48 3.8807 16.6265C3.31322 16.0688 3 15.303 3 14.5074V10.417Z" stroke="#86837F" stroke-width="1.5"/>
<path d="M9.5 12.4L10.929 14L14.5 10" stroke="#86837F" stroke-width="1.5" stroke-linecap="round" stroke-linejoin="round"/>
</svg>
