<svg width="24" height="24" viewBox="0 0 24 24" fill="none" xmlns="http://www.w3.org/2000/svg">
<path d="M21.15 2.86C20.7679 2.47056 20.2835 2.19722 19.7526 2.07158C19.2217 1.94593 18.6661 1.97312 18.15 2.15L3.99999 6.88C3.4293 7.0668 2.93068 7.42615 2.57294 7.90844C2.21521 8.39073 2.016 8.97217 2.00283 9.57251C1.98966 10.1728 2.16318 10.7625 2.49942 11.26C2.83566 11.7575 3.31804 12.1384 3.87999 12.35L9.11999 14.35C9.23931 14.3956 9.34795 14.4654 9.43913 14.5548C9.53032 14.6443 9.6021 14.7516 9.64999 14.87L11.65 20.12C11.8536 20.674 12.223 21.1517 12.708 21.4882C13.1929 21.8246 13.7698 22.0033 14.36 22H14.43C15.031 21.9891 15.6135 21.7903 16.0959 21.4317C16.5783 21.073 16.9364 20.5724 17.12 20L21.85 5.83C22.022 5.31894 22.0476 4.76994 21.9239 4.24509C21.8002 3.72023 21.5321 3.24045 21.15 2.86ZM20.4385 4.70117L15.27 19.88C15.2145 20.0595 15.103 20.2165 14.9519 20.328C14.8007 20.4396 14.6178 20.4998 14.43 20.5C14.2432 20.5031 14.06 20.4492 13.9046 20.3456C13.7492 20.242 13.629 20.0936 13.56 19.92L11.3815 14.67C11.2365 14.2885 10.7877 13.7894 10.5 13.5C10.2123 13.2106 9.86692 12.9849 9.48632 12.8376L4 10.5C3.82289 10.4351 3.67065 10.3162 3.56478 10.1601C3.45892 10.004 3.40477 9.81855 3.41 9.63C3.41015 9.44215 3.47042 9.25927 3.58197 9.10813C3.69353 8.95698 3.85053 8.8455 4.03 8.79L19.2385 3.55118C19.4013 3.48482 19.5799 3.46705 19.7526 3.5C19.9253 3.53295 20.0847 3.61522 20.2116 3.73686C20.3386 3.8585 20.4275 4.0143 20.4678 4.18544C20.5081 4.35657 20.4979 4.5357 20.4385 4.70117Z" fill="white"/>
</svg>
