<svg width="24" height="24" viewBox="0 0 24 24" fill="none" xmlns="http://www.w3.org/2000/svg">
<path fill-rule="evenodd" clip-rule="evenodd" d="M5 20V3C5 2.44772 5.44772 2 6 2H18C18.5523 2 19 2.44772 19 3V20H20C20.5523 20 21 20.4477 21 21C21 21.5523 20.5523 22 20 22H4C3.44772 22 3 21.5523 3 21C3 20.4477 3.44772 20 4 20H5ZM10.5 7C11.0523 7 11.5 6.55228 11.5 6C11.5 5.44772 11.0523 5 10.5 5H8.5C7.94772 5 7.5 5.44772 7.5 6C7.5 6.55228 7.94772 7 8.5 7H10.5ZM16.5 10.5C16.5 11.0523 16.0523 12 15.5 12H13.5C12.9477 12 12.5 11.0523 12.5 10.5C12.5 9.94772 12.9477 9 13.5 9H15.5C16.0523 9 16.5 9.94772 16.5 10.5ZM10.5 16C11.0523 16 11.5 15.5523 11.5 15C11.5 14.4477 11.0523 14 10.5 14H8.5C7.94772 14 7.5 14.4477 7.5 15C7.5 15.5523 7.94772 16 8.5 16H10.5ZM16.5 6C16.5 6.55228 16.0523 7 15.5 7H13.5C12.9477 7 12.5 6.55228 12.5 6C12.5 5.44772 12.9477 5 13.5 5H15.5C16.0523 5 16.5 5.44772 16.5 6ZM10.5 12C11.0523 12 11.5 11.0523 11.5 10.5C11.5 9.94772 11.0523 9 10.5 9H8.5C7.94772 9 7.5 9.94772 7.5 10.5C7.5 11.0523 7.94772 12 8.5 12H10.5ZM16.5 15C16.5 15.5523 16.0523 16 15.5 16H13.5C12.9477 16 12.5 15.5523 12.5 15C12.5 14.4477 12.9477 14 13.5 14H15.5C16.0523 14 16.5 14.4477 16.5 15Z" fill="white"/>
</svg>
