<svg width="24" height="24" viewBox="0 0 24 24" fill="none" xmlns="http://www.w3.org/2000/svg">
<path d="M10.5714 16H3M21.2857 16H18.8571M17.7143 14C18.0174 14 18.3081 14.1003 18.5224 14.3146C18.7367 14.529 18.8571 14.554 18.8571 14.8571V17.1429C18.8571 17.446 18.682 17.4509 18.4677 17.6653C18.2534 17.8796 17.9627 18 17.6596 18C17.0938 18 12.0469 18 11.6328 18C11.2188 18 10.9523 17.7661 10.8515 17.6653C10.6371 17.4509 10.5714 17.446 10.5714 17.1429V14.8571C10.5714 14.554 10.6918 14.529 10.9062 14.3146C11.007 14.2138 11.2703 14.0518 11.6328 14C12 14 17.25 14 17.7143 14Z" stroke="#171717" stroke-width="1.14286" stroke-linecap="round" stroke-linejoin="round"/>
<path d="M13.7143 8.00001H21.2857M2.99999 8.00001H5.42856M6.57142 10C6.26831 10 5.97762 9.89969 5.7633 9.68536C5.54897 9.47103 5.42856 9.44597 5.42856 9.14286V6.85715C5.42856 6.55404 5.60366 6.54906 5.81798 6.33474C6.03231 6.12041 6.323 6 6.62611 6C7.19196 6 12.2388 6 12.6529 6C13.067 6 13.3334 6.23387 13.4342 6.33474C13.6486 6.54906 13.7143 6.55404 13.7143 6.85715V9.14286C13.7143 9.44597 13.5939 9.47103 13.3795 9.68536C13.2787 9.78622 13.0154 9.94821 12.6529 10C12.2857 10 7.03571 10 6.57142 10Z" stroke="#171717" stroke-width="1.14286" stroke-linecap="round" stroke-linejoin="round"/>
</svg>
