<svg width="24" height="24" viewBox="0 0 24 24" fill="none" xmlns="http://www.w3.org/2000/svg">
<path fill-rule="evenodd" clip-rule="evenodd" d="M21.2288 19.2491L21.8617 11.6536C21.9475 10.6246 21.4981 9.62392 20.6721 9.00442L13.7995 3.85C12.7329 3.05 11.2662 3.05 10.1995 3.85L3.32698 9.00442C2.50098 9.62392 2.0516 10.6246 2.13734 11.6536L2.7703 19.2491C2.89988 20.804 4.19968 22 5.75994 22H18.2391C19.7994 22 21.0992 20.804 21.2288 19.2491ZM12 15C13.1046 15 14 14.1046 14 13C14 11.8954 13.1046 11 12 11C10.8954 11 10 11.8954 10 13C10 14.1046 10.8954 15 12 15Z" fill="white"/>
</svg>
