<svg width="24" height="24" viewBox="0 0 24 24" fill="none" xmlns="http://www.w3.org/2000/svg">
<path d="M4.91499 8.45C4.90173 8.25149 4.81015 8.06637 4.6604 7.93538C4.51066 7.80438 4.315 7.73824 4.11649 7.7515C3.91798 7.76476 3.73286 7.85634 3.60187 8.00609C3.47087 8.15584 3.40473 8.35149 3.41799 8.55L4.6604 15C4.99999 16.5 5.36699 17.82 5.52899 18.634C5.69799 19.479 5.98399 20.185 6.57599 20.738C7.16699 21.292 7.89099 21.531 8.74599 21.642C9.56799 21.75 10.275 21.75 11.561 21.75H12.44C13.725 21.75 14.764 21.75 15.586 21.642C16.44 21.531 16.833 21.292 17.425 20.738C18.016 20.185 18.302 19.478 18.471 18.634C18.633 17.82 19 16.5 19.3396 15L20.582 8.55C20.5953 8.35149 20.5291 8.15584 20.3981 8.00609C20.2671 7.85634 20.082 7.76476 19.8835 7.7515C19.685 7.73824 19.4893 7.80438 19.3396 7.93538C19.1898 8.06637 19.0983 8.25149 19.085 8.45L17.8466 14.848C17.5 16 17.1303 17.6886 17 18.34C16.863 19.025 16.673 19.387 16.4 19.643C16.126 19.899 16.083 20.065 15.391 20.155C14.678 20.248 13.738 20.25 12.387 20.25H11.613C10.263 20.25 9.65399 20.248 8.93999 20.155C8.24799 20.065 7.87399 19.899 7.59999 19.643C7.32699 19.387 7.13999 19.045 6.99999 18.34C6.85999 17.635 6.49999 16 6.1534 14.848L4.91499 8.45Z" fill="#86837F"/>
<path d="M9.92498 12.679C10.1228 12.6592 10.3204 12.7187 10.4744 12.8445C10.6283 12.9704 10.726 13.1522 10.746 13.35L10.746 15.925C10.7606 16.1201 10.6984 16.3131 10.5727 16.463C10.447 16.6129 10.2677 16.7078 10.0731 16.7274C9.87845 16.7469 9.68386 16.6897 9.53083 16.5678C9.37781 16.4459 9.27846 16.2691 9.25398 16.075L9.25398 13.5C9.23416 13.3022 9.2937 13.1045 9.41952 12.9506C9.54535 12.7966 9.72715 12.6989 9.92498 12.679ZM14.7459 13.65C14.7605 13.4549 14.6984 13.2618 14.5727 13.1119C14.447 12.962 14.2677 12.8672 14.073 12.8476C13.8784 12.828 13.6838 12.8853 13.5308 13.0072C13.3778 13.1291 13.2784 13.3059 13.2539 13.5V15.925C13.2393 16.1201 13.3014 16.3131 13.4271 16.463C13.5528 16.6129 13.7321 16.7078 13.9268 16.7274C14.1214 16.7469 14.316 16.6897 14.469 16.5678C14.6221 16.4459 14.7214 16.2691 14.7459 16.075V13.65Z" fill="#86837F"/>
<path d="M9.5 2.5L8.5 3.5L7 5M17 5L15.5 3.5L14.5 2.5" stroke="#86837F" stroke-width="1.5" stroke-linecap="round"/>
<rect x="3.25" y="5.25" width="17.5" height="3.5" rx="1.75" stroke="#86837F" stroke-width="1.5"/>
</svg>
