<svg width="24" height="24" viewBox="0 0 24 24" fill="none" xmlns="http://www.w3.org/2000/svg">
<path fill-rule="evenodd" clip-rule="evenodd" d="M8 2H14.5H18C20.2092 2 22 3.79086 22 6V10.5V14C22 16.2091 20.2092 18 18 18H15.0146C14.6917 18 14.3886 18.156 14.2009 18.4188L12.8137 20.3608C12.4149 20.9191 11.5851 20.9191 11.1863 20.3608L9.79912 18.4188C9.6114 18.156 9.30833 18 8.98538 18H6.01001C3.80087 18 2.01001 16.2091 2.01001 14V6C2.01001 3.79086 3.80156 2 6.0107 2H8ZM8.00002 11C8.5523 11 9.00002 10.5523 9.00002 10C9.00002 9.44772 8.5523 9 8.00002 9C7.44773 9 7.00002 9.44772 7.00002 10C7.00002 10.5523 7.44773 11 8.00002 11ZM13 10C13 10.5523 12.5523 11 12 11C11.4477 11 11 10.5523 11 10C11 9.44772 11.4477 9 12 9C12.5523 9 13 9.44772 13 10ZM16 11C16.5523 11 17 10.5523 17 10C17 9.44772 16.5523 9 16 9C15.4477 9 15 9.44772 15 10C15 10.5523 15.4477 11 16 11Z" fill="white"/>
</svg>
