<svg width="24" height="24" viewBox="0 0 24 24" fill="none" xmlns="http://www.w3.org/2000/svg">
<path d="M4.6967 4.6967C6.10322 3.29018 8.01088 2.5 10 2.5C11.9891 2.5 13.8968 3.29018 15.3033 4.6967C16.7098 6.10322 17.5 8.01088 17.5 10C17.5 11.9891 16.7098 13.8968 15.3033 15.3033C13.8968 16.7098 11.9891 17.5 10 17.5C8.01088 17.5 6.10322 16.7098 4.6967 15.3033C3.29018 13.8968 2.5 11.9891 2.5 10C2.5 8.01088 3.29018 6.10322 4.6967 4.6967Z" stroke="#171717"/>
<path fill-rule="evenodd" clip-rule="evenodd" d="M19.621 19.5C19.4335 19.6875 19.1791 19.7928 18.914 19.7928C18.6488 19.7928 18.3945 19.6875 18.207 19.5L16.793 18.207C16.6108 18.0184 16.51 17.7658 16.5123 17.5036C16.5146 17.2414 16.6198 16.9906 16.8052 16.8052C16.9906 16.6198 17.2414 16.5146 17.5036 16.5123C17.7658 16.51 18.0184 16.6108 18.207 16.793L19.621 18.086C19.8085 18.2735 19.9138 18.5278 19.9138 18.793C19.9138 19.0582 19.8085 19.3125 19.621 19.5Z" fill="#171717"/>
</svg>
