<svg width="24" height="24" viewBox="0 0 24 24" fill="none" xmlns="http://www.w3.org/2000/svg">
<path d="M21.75 11.5938V9C21.75 7 19.5 6.75 18 6.75H6C4.5 6.75 2.25 7.34375 2.25 9V18C2.25 20.25 4.75736 20.25 6 20.25H18C19.2426 20.25 21.75 19.6562 21.75 18V16.5" stroke="#FC9E12" stroke-width="1.5" stroke-linejoin="round"/>
<path d="M6 10H10" stroke="#FC9E12" stroke-width="1.5" stroke-linecap="round" stroke-linejoin="round"/>
<path d="M22.1664 12H20.3079C19.0329 12 18 12.8953 18 14C18 15.1047 19.0336 16 20.3071 16H22.1664C22.2264 16 22.2557 16 22.2807 15.9987C22.6664 15.9767 22.9736 15.7107 22.9986 15.3767C23 15.3553 23 15.3293 23 15.278V12.722C23 12.6707 23 12.6447 22.9986 12.6233C22.9729 12.2893 22.6664 12.0233 22.2807 12.0013C22.2557 12 22.2264 12 22.1664 12Z" stroke="#FC9E12"/>
<path d="M19.2825 6.45313V4.34375C19.2824 3.99885 19.2062 3.65822 19.0592 3.34617C18.9123 3.03412 18.6984 2.75834 18.4326 2.53851C18.1668 2.31868 17.8558 2.16022 17.5217 2.07442C17.1877 1.98863 16.8388 1.97762 16.5 2.04219L4.155 4.14922C3.6189 4.25138 3.13526 4.53743 2.78749 4.95802C2.43972 5.37861 2.24963 5.90738 2.25 6.45313V8.75" stroke="#FC9E12" stroke-width="1.5" stroke-linejoin="round"/>
</svg>
